<?xml version="1.0" encoding="UTF-8"?>
<svg width="60px" height="24px" viewBox="0 0 60 24" version="1.1" xmlns="http://www.w3.org/2000/svg" xmlns:xlink="http://www.w3.org/1999/xlink">
    <!-- Generator: Sketch 51 (57462) - http://www.bohemiancoding.com/sketch -->
    <title>按钮/关注-红色底</title>
    <desc>Created with Sketch.</desc>
    <defs></defs>
    <g id="按钮/关注-红色底" stroke="none" stroke-width="1" fill="none" fill-rule="evenodd">
        <rect id="Rectangle-3" fill="#FF4C6A" x="0" y="0" width="60" height="24" rx="12"></rect>
        <g id="icon/关注加号" transform="translate(3.000000, 0.000000)">
            <g id="Group" stroke-width="1" transform="translate(8.000000, 8.000000)" fill="#FFFFFF">
                <path d="M3,3 L3,1 C3,0.44771525 3.44771525,1.01453063e-16 4,0 C4.55228475,-1.01453063e-16 5,0.44771525 5,1 L5,3 L7,3 C7.55228475,3 8,3.44771525 8,4 C8,4.55228475 7.55228475,5 7,5 L5,5 L5,7 C5,7.55228475 4.55228475,8 4,8 C3.44771525,8 3,7.55228475 3,7 L3,5 L1,5 C0.44771525,5 6.76353751e-17,4.55228475 0,4 C-6.76353751e-17,3.44771525 0.44771525,3 1,3 L3,3 Z" id="Combined-Shape"></path>
            </g>
            <rect id="Rectangle-10" fill="#D8D8D8" opacity="0" x="0" y="0" width="24" height="24"></rect>
        </g>
        <text id="哈哈" font-family="PingFangSC-Regular, PingFang SC" font-size="12" font-weight="normal" line-spacing="18" fill="#FFFFFF">
            <tspan x="24" y="16">哈哈</tspan>
        </text>
    </g>
</svg>